<?xml version="1.0" encoding="utf-8"?>
<svg width="1010" height="1010" viewBox="-505.0 -505.0 1010 1010" xmlns="http://www.w3.org/2000/svg">
<style>text {font: 16px sans-serif; text-anchor: middle; dominant-baseline: middle;}</style>
<path d="M 0 0 Q -400.0 -190.0 0 -500.0 Q 400.0 -190.0 0 0 Q -310.8932210824863 -315.3496552795901 171.01007166283435 -469.8463103929542 Q 440.86087554624044 -41.733540619055134 0 0 Q -184.2881314071488 -402.6634880672216 321.39380484326966 -383.022221559489 Q 428.5474230880337 111.56659968200987 0 0 Q -35.4551732809567 -441.4101615137755 433.0127018922193 -250.00000000000006 Q 364.5448267190434 251.41016151377545 0 0 Q 117.65420200554735 -426.9162549616001 492.40387650610404 -86.82408883346525 Q 256.5727441390917 360.92994744816644 0 0 Q 256.57274413909164 -360.9299474481666 492.4038765061041 86.8240888334651 Q 117.65420200554743 426.9162549616 0 0 Q 364.5448267190434 -251.41016151377568 433.0127018922194 249.99999999999994 Q -35.4551732809566 441.4101615137755 0 0 Q 428.5474230880338 -111.56659968201011 321.3938048432698 383.022221559489 Q -184.28813140714868 402.66348806722164 0 0 Q 440.86087554624055 41.73354061905492 171.01007166283452 469.84631039295425 Q -310.89322108248626 315.3496552795902 0 0 Q 400.00000000000017 189.9999999999999 1.4210854715202004e-13 500.0000000000001 Q -400.0 190.00000000000014 0 0 Q 310.89322108248655 315.34965527959 -171.01007166283426 469.84631039295436 Q -440.8608755462405 41.73354061905525 0 0 Q 184.288131407149 402.6634880672216 -321.39380484326966 383.02222155948925 Q -428.54742308803384 -111.56659968200978 0 0 Q 35.4551732809569 441.4101615137756 -433.0127018922194 250.00000000000028 Q -364.54482671904356 -251.4101615137754 0 0 Q -117.6542020055472 426.91625496160026 -492.4038765061042 86.82408883346542 Q -256.5727441390919 -360.9299474481665 0 0 Q -256.5727441390916 360.9299474481668 -492.4038765061043 -86.82408883346498 Q -117.65420200554765 -426.91625496160015 0 0 Q -364.5448267190434 251.4101615137758 -433.0127018922197 -249.9999999999999 Q 35.45517328095646 -441.41016151377573 0 0 Q -428.54742308803384 111.56659968201022 -321.39380484327006 -383.022221559489 Q 184.28813140714865 -402.6634880672219 0 0 Q -440.86087554624066 -41.733540619054835 -171.01007166283475 -469.84631039295436 Q 310.8932210824863 -315.3496552795905 0 0" stroke="black" fill="transparent" stroke-width="2"/>
<path d="M 0 0 Q 147.23999999999998 -69.939 186.081912 -156.1377132 Q 94.44442711759963 -132.85831365567012 0 0 Q 162.2808882885711 -15.362116301874194 228.2620426153389 -83.07769470787206 Q 134.18895071527987 -92.54408045322083 0 0 Q 157.7483064387052 41.067665342947826 242.91040210230508 0.002719862216231661 Q 157.7483064387052 -41.06766534294792 0 0 Q 134.18895071527987 92.54408045322074 228.2601821200089 83.08280637678037 Q 162.28088828857113 15.362116301874115 0 0 Q 94.44442711759964 132.85831365567006 186.0784154125347 156.1418802706736 Q 147.24000000000007 69.93899999999995 0 0 Q 43.308511758242005 157.14787345136494 121.45284558137851 210.36793899519722 Q 114.4397946804633 116.08020810841708 0 0 Q -13.051049284720124 162.48308045322077 42.17827012000891 239.22051957678036 Q 67.83646117097155 148.22042995754427 0 0 Q -67.83646117097143 148.22042995754427 -42.18362720280421 239.2195749785457 Q 13.051049284720234 162.4830804532208 0 0 Q -114.4397946804632 116.08020810841714 -121.45755652092657 210.36521913298105 Q -43.30851175824193 157.14787345136506 0 0 Q -147.23999999999998 69.93900000000005 -186.08191199999996 156.13771320000006 Q -94.4444271175996 132.8583136556702 0 0 Q -162.2808882885711 15.362116301874236 -228.26204261533894 83.07769470787213 Q -134.18895071527987 92.54408045322086 0 0 Q -157.74830643870524 -41.0676653429478 -242.91040210230514 -0.002719862216167712 Q -157.74830643870524 41.06766534294796 0 0 Q -134.18895071527993 -92.54408045322072 -228.260182120009 -83.0828063767803 Q -162.2808882885712 -15.362116301874083 0 0 Q -94.44442711759973 -132.8583136556701 -186.0784154125348 -156.1418802706736 Q -147.24000000000012 -69.93899999999994 0 0 Q -43.30851175824208 -157.147873451365 -121.45284558137863 -210.3679389951973 Q -114.43979468046335 -116.08020810841708 0 0 Q 13.051049284720072 -162.48308045322085 -42.17827012000902 -239.22051957678048 Q -67.8364611709716 -148.22042995754427 0 0 Q 67.83646117097142 -148.22042995754438 42.18362720280416 -239.21957497854584 Q -13.051049284720296 -162.48308045322085 0 0 Q 114.43979468046321 -116.08020810841725 121.45755652092657 -210.3652191329812 Q 43.308511758241885 -157.14787345136511 0 0" stroke="transparent" fill="black" stroke-width="1"/>
<path d="M 0 -502.0 Q 42.96 -468.706 76.692192 -436.7731016800001 Q 119.93769830863825 -455.1327548753507 171.6941119494857 -471.725695634526 Q 200.6760882865635 -425.74638416080927 221.45228573168657 -384.20218610666956 Q 268.3691401093478 -386.6637824686575 322.67938006264274 -384.55431044572697 Q 334.1876786621304 -331.43547104439 339.50196551647673 -285.2908166685033 Q 384.4313029061891 -271.5574513465795 434.7447526997882 -251.0 Q 427.39130290618914 -197.14854865342053 416.60269774460374 -151.96916429608635 Q 454.1253769707687 -123.69728383096074 494.37349201212845 -87.17138518879904 Q 469.0452283959114 -39.082601692151805 443.4549962237359 -0.3177878835640371 Q 469.04522839591135 39.08260169215179 494.37349201212845 87.17138518879904 Q 454.12537697076874 123.69728383096073 416.8200774595712 151.37191843776571 Q 427.39130290618914 197.1485486534205 434.7447526997882 251.0 Q 384.4313029061891 271.5574513465795 339.9105057446037 284.80393738391376 Q 334.18767866213045 331.43547104439 322.6793800626428 384.55431044572697 Q 268.3691401093479 386.6637824686575 222.00271049204935 383.88439822310556 Q 200.6760882865636 425.74638416080927 171.69411194948577 471.725695634526 Q 119.93769830863835 455.13275487535077 77.3181119430945 436.662735106269 Q 42.9600000000001 468.706 8.526512829121202e-14 502.0 Q -42.95999999999992 468.7060000000001 -76.69219199999995 436.7731016800001 Q -119.93769830863818 455.13275487535077 -171.6941119494856 471.72569563452606 Q -200.67608828656347 425.7463841608093 -221.45228573168652 384.20218610666967 Q -268.36914010934765 386.6637824686576 -322.6793800626426 384.5543104457271 Q -334.18767866213034 331.4354710443901 -339.50196551647673 285.29081666850334 Q -384.43130290618905 271.5574513465797 -434.74475269978814 251.00000000000017 Q -427.3913029061891 197.14854865342068 -416.6026977446037 151.96916429608646 Q -454.1253769707687 123.69728383096091 -494.37349201212845 87.17138518879923 Q -469.0452283959114 39.082601692151975 -443.4549962237359 0.3177878835641934 Q -469.0452283959114 -39.082601692151606 -494.3734920121285 -87.17138518879885 Q -454.1253769707688 -123.69728383096057 -416.8200774595713 -151.3719184377656 Q -427.39130290618925 -197.14854865342033 -434.7447526997883 -250.99999999999983 Q -384.4313029061893 -271.55745134657934 -339.9105057446039 -284.80393738391365 Q -334.1876786621307 -331.4354710443898 -322.67938006264296 -384.55431044572686 Q -268.36914010934805 -386.66378246865736 -222.00271049204946 -383.88439822310545 Q -200.67608828656378 -425.74638416080916 -171.69411194948597 -471.72569563452595 Q -119.93769830863852 -455.1327548753507 -77.31811194309464 -436.662735106269 Q -42.96000000000029 -468.706 -2.8421709430404007e-13 -502.0 Q 42.95999999999975 -468.7060000000001 76.69219199999979 -436.77310168000014 Q 119.93769830863798 -455.1327548753508 171.69411194948543 -471.7256956345261" stroke="black" fill="transparent" stroke-width="5"/>
<circle cx="0" cy="0" r="111.68519825957912" stroke="transparent" fill="white"/>
<text x="0" y="-479.0">1</text>
<text x="163.82764865299532" y="-450.11276535645015">2</text>
<text x="307.89526503985235" y="-366.93528825399056">3</text>
<text x="414.82616841274614" y="-239.50000000000009">4</text>
<text x="471.7229136928478" y="-83.17747710245973">5</text>
<text x="471.72291369284784" y="83.17747710245958">6</text>
<text x="414.8261684127463" y="239.5">7</text>
<text x="307.8952650398525" y="366.93528825399056">8</text>
<text x="163.8276486529955" y="450.11276535645027">9</text>
<text x="1.4210854715202004e-13" y="479.0000000000002">10</text>
<text x="-163.82764865299524" y="450.1127653564504">11</text>
<text x="-307.89526503985235" y="366.93528825399073">12</text>
<text x="-414.8261684127462" y="239.50000000000026">13</text>
<text x="-471.7229136928479" y="83.17747710245987">14</text>
<text x="-471.722913692848" y="-83.17747710245948">15</text>
<text x="-414.82616841274654" y="-239.49999999999997">16</text>
<text x="-307.89526503985275" y="-366.9352882539906">17</text>
<text x="-163.8276486529957" y="-450.1127653564504">18</text>
</svg>